<?xml version="1.0" encoding="UTF-8"?>
<svg id="Capa_1" data-name="Capa 1" xmlns="http://www.w3.org/2000/svg" version="1.1" viewBox="0 0 512 512">
  <defs>
    <style>
      .cls-1 {
        fill: #fff;
        stroke-width: 0px;
      }
    </style>
  </defs>
  <path class="cls-1" d="M74.8,96.3l-35.2,100.5C16.4,206.4,0,229.3,0,256v192c0,17.7,14.3,32,32,32h32c17.7,0,32-14.3,32-32v-48h320v48c0,17.7,14.3,32,32,32h32c17.7,0,32-14.3,32-32v-192c0-26.7-16.4-49.6-39.6-59.2l-35.2-100.5c-13.5-38.5-49.8-64.3-90.6-64.3h-181.2c-40.8,0-77.1,25.8-90.6,64.3ZM96,256c17.7,0,32,14.3,32,32s-14.3,32-32,32-32-14.3-32-32,14.3-32,32-32ZM384,288c0-17.7,14.3-32,32-32s32,14.3,32,32-14.3,32-32,32-32-14.3-32-32ZM318.3,119.2l-36.4,72.8h54.1c6.9,0,13,4.4,15.2,10.9s-.1,13.7-5.6,17.9l-128,96c-5.9,4.5-14.2,4.2-19.9-.5s-7.4-12.8-4.1-19.4l36.5-72.9h-54.1c-6.9,0-13-4.4-15.2-10.9s.1-13.7,5.6-17.9l128-96c5.9-4.5,14.2-4.2,19.9.5s7.4,12.8,4.1,19.4h-.1Z"/>
</svg>